<svg width="1195" height="905" viewBox="0 0 1195 905" fill="none" xmlns="http://www.w3.org/2000/svg">
<path d="M1073.52 669.846C924.338 795.146 754.403 871.457 563.717 898.778C373.031 926.099 216.556 863.449 94.2928 710.827C-27.9706 558.206 -31.3357 401.346 84.1976 240.245C199.731 79.1451 367.983 -0.93389 588.955 0.00821604C809.926 0.950322 983.226 81.5004 1108.85 241.658C1234.48 401.817 1222.71 544.546 1073.52 669.846Z" fill="url(#paint0_linear)"/>
<g clip-path="url(#clip0)">
<path d="M1101.92 623.03C1101.94 627.098 1100.35 631.009 1097.48 633.9C1094.62 636.792 1090.73 638.429 1086.66 638.45H415.26C413.246 638.44 411.253 638.032 409.396 637.252C407.539 636.471 405.854 635.333 404.437 633.901C403.02 632.469 401.899 630.772 401.137 628.907C400.376 627.042 399.99 625.045 400 623.03V164.42C399.979 160.352 401.575 156.441 404.436 153.55C407.298 150.658 411.191 149.021 415.26 149H1086.66C1088.67 149.01 1090.67 149.418 1092.52 150.198C1094.38 150.979 1096.07 152.118 1097.48 153.549C1098.9 154.981 1100.02 156.678 1100.78 158.543C1101.54 160.408 1101.93 162.405 1101.92 164.42V164.42V623.03Z" fill="#E6E6E6"/>
<path d="M1094 615.52C1094 619.474 1092.43 623.267 1089.63 626.063C1086.84 628.859 1083.04 630.43 1079.09 630.43H423.29C419.336 630.43 415.543 628.859 412.747 626.063C409.951 623.267 408.38 619.474 408.38 615.52V172.14C408.38 168.186 409.951 164.393 412.747 161.597C415.543 158.801 419.336 157.23 423.29 157.23H1079.12C1083.07 157.238 1086.85 158.812 1089.64 161.608C1092.43 164.403 1094 168.191 1094 172.14V615.52Z" fill="white"/>
<path d="M443.43 176.48H1059.65C1062 176.48 1064.25 177.412 1065.91 179.072C1067.57 180.732 1068.5 182.983 1068.5 185.33V600.61C1068.5 602.957 1067.57 605.208 1065.91 606.868C1064.25 608.528 1062 609.46 1059.65 609.46H443.43C441.083 609.46 438.832 608.528 437.172 606.868C435.513 605.208 434.58 602.957 434.58 600.61V185.33C434.58 182.983 435.513 180.732 437.172 179.072C438.832 177.412 441.083 176.48 443.43 176.48V176.48Z" fill="#E6E6E6"/>
<path d="M451.23 186.44H1051.18C1053.53 186.44 1055.78 187.372 1057.44 189.032C1059.1 190.692 1060.03 192.943 1060.03 195.29V588.41C1060.03 590.757 1059.1 593.008 1057.44 594.668C1055.78 596.328 1053.53 597.26 1051.18 597.26H451.23C448.883 597.26 446.632 596.328 444.972 594.668C443.313 593.008 442.38 590.757 442.38 588.41V195.29C442.38 192.943 443.313 190.692 444.972 189.032C446.632 187.372 448.883 186.44 451.23 186.44V186.44Z" fill="white"/>
<path d="M874.836 459.533C872.475 459.531 870.14 459.034 867.983 458.072C867.481 457.85 867.002 457.578 866.554 457.261L822.952 426.569C820.741 425.012 818.937 422.947 817.691 420.547C816.445 418.147 815.794 415.483 815.793 412.778V370.921C815.794 368.217 816.445 365.553 817.691 363.153C818.936 360.753 820.741 358.687 822.952 357.131L866.554 326.439C867.002 326.122 867.481 325.85 867.983 325.627C870.551 324.486 873.364 324.003 876.166 324.225C878.968 324.447 881.67 325.365 884.027 326.897C886.384 328.428 888.321 330.524 889.662 332.994C891.003 335.465 891.705 338.231 891.705 341.042V442.658C891.705 447.132 889.928 451.423 886.764 454.587C883.601 457.75 879.31 459.527 874.836 459.527L874.836 459.533Z" fill="#3F3D56"/>
<path d="M777.255 467.762H655.647C630.837 467.742 610.731 451.704 610.705 431.915V351.785C610.731 331.996 630.837 315.959 655.647 315.938H777.572C802.206 315.961 822.168 331.884 822.197 351.532V431.915C822.172 451.704 802.065 467.742 777.255 467.762Z" fill="#3F3D56"/>
<path d="M993.879 571.981C1013.85 571.981 1030.05 555.788 1030.05 535.814C1030.05 515.839 1013.85 499.646 993.879 499.646C973.905 499.646 957.712 515.839 957.712 535.814C957.712 555.788 973.905 571.981 993.879 571.981Z" fill="#E6E6E6"/>
<path d="M1012.66 535.165L983.836 518.521C983.722 518.455 983.593 518.42 983.461 518.42C983.33 518.42 983.201 518.455 983.087 518.521C982.973 518.586 982.879 518.681 982.813 518.795C982.747 518.909 982.713 519.038 982.713 519.169V552.458C982.713 552.59 982.747 552.719 982.813 552.832C982.879 552.946 982.973 553.041 983.087 553.106C983.201 553.172 983.33 553.207 983.461 553.207C983.593 553.207 983.722 553.172 983.836 553.106L1012.66 536.462C1012.78 536.396 1012.87 536.302 1012.94 536.188C1013 536.074 1013.04 535.945 1013.04 535.814C1013.04 535.682 1013 535.553 1012.94 535.439C1012.87 535.325 1012.78 535.231 1012.66 535.165L983.836 518.521C983.722 518.455 983.593 518.42 983.461 518.42C983.33 518.42 983.201 518.455 983.087 518.521C982.973 518.586 982.879 518.681 982.813 518.795C982.747 518.909 982.713 519.038 982.713 519.169V552.458C982.713 552.59 982.747 552.719 982.813 552.832C982.879 552.946 982.973 553.041 983.087 553.106C983.201 553.172 983.33 553.207 983.461 553.207C983.593 553.207 983.722 553.172 983.836 553.106L1012.66 536.462C1012.78 536.396 1012.87 536.302 1012.94 536.188C1013 536.074 1013.04 535.945 1013.04 535.814C1013.04 535.682 1013 535.553 1012.94 535.439C1012.87 535.325 1012.78 535.231 1012.66 535.165V535.165Z" fill="white"/>
<path d="M946.92 678.03C946.941 682.098 945.346 686.009 942.484 688.9C939.622 691.792 935.729 693.429 931.661 693.45H260.26C258.246 693.44 256.253 693.032 254.396 692.252C252.539 691.471 250.854 690.333 249.437 688.901C248.02 687.469 246.899 685.772 246.137 683.907C245.376 682.042 244.99 680.045 245 678.03V219.42C244.979 215.352 246.575 211.441 249.436 208.55C252.298 205.658 256.191 204.021 260.26 204H931.66C933.675 204.01 935.667 204.418 937.524 205.198C939.382 205.979 941.067 207.118 942.484 208.549C943.901 209.981 945.022 211.678 945.783 213.543C946.544 215.408 946.931 217.405 946.92 219.42V219.42V678.03Z" fill="#E6E6E6"/>
<path d="M939 670.52C939 674.474 937.429 678.267 934.633 681.063C931.837 683.859 928.045 685.43 924.09 685.43H268.29C264.336 685.43 260.543 683.859 257.747 681.063C254.951 678.267 253.38 674.474 253.38 670.52V227.14C253.38 223.186 254.951 219.393 257.747 216.597C260.543 213.801 264.336 212.23 268.29 212.23H924.12C928.069 212.238 931.854 213.812 934.644 216.608C937.434 219.403 939 223.191 939 227.14V670.52Z" fill="white"/>
<path d="M288.43 231.48H904.65C906.997 231.48 909.248 232.412 910.908 234.072C912.568 235.732 913.5 237.983 913.5 240.33V655.61C913.5 657.957 912.568 660.208 910.908 661.868C909.248 663.528 906.997 664.46 904.65 664.46H288.43C286.083 664.46 283.832 663.528 282.172 661.868C280.513 660.208 279.58 657.957 279.58 655.61V240.33C279.58 237.983 280.513 235.732 282.172 234.072C283.832 232.412 286.083 231.48 288.43 231.48Z" fill="#E6E6E6"/>
<path d="M296.23 241.44H896.18C898.527 241.44 900.778 242.372 902.438 244.032C904.098 245.692 905.03 247.943 905.03 250.29V643.41C905.03 645.757 904.098 648.008 902.438 649.668C900.778 651.328 898.527 652.26 896.18 652.26H296.23C293.883 652.26 291.632 651.328 289.972 649.668C288.313 648.008 287.38 645.757 287.38 643.41V250.29C287.38 247.943 288.313 245.692 289.972 244.032C291.632 242.372 293.883 241.44 296.23 241.44V241.44Z" fill="white"/>
<path d="M719.836 514.533C717.475 514.531 715.14 514.034 712.983 513.073C712.481 512.85 712.002 512.578 711.554 512.261L667.952 481.569C665.741 480.013 663.937 477.947 662.691 475.547C661.445 473.147 660.794 470.483 660.793 467.779V425.922C660.794 423.218 661.445 420.553 662.691 418.153C663.936 415.753 665.741 413.688 667.952 412.131L711.554 381.439C712.002 381.122 712.481 380.85 712.983 380.628C715.551 379.486 718.364 379.004 721.166 379.225C723.968 379.447 726.67 380.365 729.027 381.897C731.384 383.428 733.321 385.524 734.662 387.995C736.003 390.465 736.705 393.231 736.705 396.042V497.658C736.705 502.132 734.928 506.423 731.764 509.587C728.601 512.75 724.31 514.528 719.836 514.528L719.836 514.533Z" fill="#3F3D56"/>
<path d="M622.255 522.762H500.647C475.837 522.741 455.731 506.704 455.705 486.914V406.785C455.731 386.996 475.837 370.958 500.647 370.938H622.572C647.206 370.961 667.168 386.884 667.197 406.532V486.914C667.172 506.704 647.065 522.741 622.255 522.762Z" fill="#3F3D56"/>
<path d="M838.879 626.981C858.854 626.981 875.047 610.788 875.047 590.814C875.047 570.839 858.854 554.646 838.879 554.646C818.905 554.646 802.712 570.839 802.712 590.814C802.712 610.788 818.905 626.981 838.879 626.981Z" fill="#E6E6E6"/>
<path d="M857.665 590.165L828.836 573.521C828.722 573.455 828.593 573.42 828.461 573.42C828.33 573.42 828.201 573.455 828.087 573.521C827.973 573.586 827.879 573.681 827.813 573.795C827.747 573.909 827.713 574.038 827.713 574.169V607.458C827.713 607.59 827.747 607.719 827.813 607.832C827.879 607.946 827.973 608.041 828.087 608.106C828.201 608.172 828.33 608.207 828.461 608.207C828.593 608.207 828.722 608.172 828.836 608.106L857.665 591.462C857.779 591.396 857.873 591.302 857.939 591.188C858.004 591.074 858.039 590.945 858.039 590.814C858.039 590.682 858.004 590.553 857.939 590.439C857.873 590.326 857.779 590.231 857.665 590.165L828.836 573.521C828.722 573.455 828.593 573.42 828.461 573.42C828.33 573.42 828.201 573.455 828.087 573.521C827.973 573.586 827.879 573.681 827.813 573.795C827.747 573.909 827.713 574.038 827.713 574.169V607.458C827.713 607.59 827.747 607.719 827.813 607.832C827.879 607.946 827.973 608.041 828.087 608.107C828.201 608.172 828.33 608.207 828.461 608.207C828.593 608.207 828.722 608.172 828.836 608.106L857.665 591.462C857.779 591.396 857.873 591.302 857.939 591.188C858.004 591.074 858.039 590.945 858.039 590.814C858.039 590.682 858.004 590.553 857.939 590.439C857.873 590.325 857.779 590.231 857.665 590.165Z" fill="white"/>
<path d="M794.92 741.03C794.941 745.098 793.346 749.009 790.484 751.9C787.622 754.792 783.729 756.429 779.661 756.45H108.26C106.246 756.44 104.253 756.032 102.396 755.252C100.539 754.471 98.8537 753.333 97.4367 751.901C96.0197 750.469 94.8985 748.772 94.1373 746.907C93.3761 745.042 92.9897 743.045 93.0002 741.03V282.42C92.9789 278.352 94.5747 274.441 97.4364 271.55C100.298 268.658 104.191 267.021 108.26 267H779.66C781.675 267.01 783.667 267.418 785.524 268.198C787.382 268.979 789.067 270.118 790.484 271.549C791.901 272.981 793.022 274.678 793.783 276.543C794.544 278.408 794.931 280.405 794.92 282.42V282.42V741.03Z" fill="#E6E6E6"/>
<path d="M787 733.52C787 737.474 785.429 741.267 782.633 744.063C779.837 746.859 776.045 748.43 772.09 748.43H116.29C112.336 748.43 108.543 746.859 105.747 744.063C102.951 741.267 101.38 737.474 101.38 733.52V290.14C101.38 286.186 102.951 282.393 105.747 279.597C108.543 276.801 112.336 275.23 116.29 275.23H772.12C776.069 275.238 779.854 276.812 782.644 279.608C785.434 282.403 787 286.191 787 290.14V733.52Z" fill="white"/>
<path d="M136.43 294.48H752.65C754.997 294.48 757.248 295.412 758.908 297.072C760.568 298.732 761.5 300.983 761.5 303.33V718.61C761.5 720.957 760.568 723.208 758.908 724.868C757.248 726.528 754.997 727.46 752.65 727.46H136.43C134.083 727.46 131.832 726.528 130.172 724.868C128.513 723.208 127.58 720.957 127.58 718.61V303.33C127.58 300.983 128.513 298.732 130.172 297.072C131.832 295.412 134.083 294.48 136.43 294.48V294.48Z" fill="#E6E6E6"/>
<path d="M144.23 304.44H744.18C745.342 304.44 746.493 304.669 747.567 305.114C748.641 305.558 749.616 306.21 750.438 307.032C751.26 307.854 751.912 308.829 752.357 309.903C752.801 310.977 753.03 312.128 753.03 313.29V706.41C753.03 707.572 752.801 708.723 752.357 709.797C751.912 710.87 751.26 711.846 750.438 712.668C749.616 713.49 748.641 714.141 747.567 714.586C746.493 715.031 745.342 715.26 744.18 715.26H144.23C141.883 715.26 139.632 714.328 137.972 712.668C136.313 711.008 135.38 708.757 135.38 706.41V313.29C135.38 310.943 136.313 308.692 137.972 307.032C139.632 305.372 141.883 304.44 144.23 304.44V304.44Z" fill="white"/>
<path d="M567.836 577.533C565.475 577.531 563.14 577.034 560.983 576.073C560.481 575.85 560.002 575.578 559.554 575.261L515.952 544.569C513.741 543.013 511.936 540.947 510.691 538.547C509.445 536.147 508.794 533.483 508.793 530.779V488.922C508.794 486.218 509.445 483.553 510.691 481.153C511.936 478.753 513.741 476.688 515.952 475.131L559.554 444.439C560.002 444.122 560.481 443.85 560.983 443.628C563.551 442.486 566.364 442.004 569.166 442.225C571.968 442.447 574.67 443.365 577.027 444.897C579.384 446.428 581.321 448.524 582.662 450.995C584.003 453.465 584.705 456.231 584.705 459.042V560.658C584.705 565.132 582.928 569.423 579.764 572.587C576.601 575.75 572.31 577.528 567.836 577.528L567.836 577.533Z" fill="#9BD3CB"/>
<path d="M470.255 585.762H348.647C323.837 585.741 303.731 569.704 303.705 549.914V469.785C303.731 449.996 323.837 433.958 348.647 433.938H470.572C495.206 433.961 515.168 449.884 515.197 469.532V549.914C515.172 569.704 495.065 585.741 470.255 585.762Z" fill="#9BD3CB"/>
<path d="M686.879 689.981C706.854 689.981 723.047 673.788 723.047 653.814C723.047 633.839 706.854 617.646 686.879 617.646C666.905 617.646 650.712 633.839 650.712 653.814C650.712 673.788 666.905 689.981 686.879 689.981Z" fill="#3F3D56"/>
<path d="M705.665 653.165L676.836 636.521C676.722 636.455 676.593 636.42 676.461 636.42C676.33 636.42 676.201 636.455 676.087 636.521C675.973 636.586 675.879 636.681 675.813 636.795C675.747 636.909 675.713 637.038 675.713 637.169V670.458C675.713 670.59 675.747 670.719 675.813 670.832C675.879 670.946 675.973 671.041 676.087 671.106C676.201 671.172 676.33 671.207 676.461 671.207C676.593 671.207 676.722 671.172 676.836 671.106L705.665 654.462C705.779 654.396 705.873 654.302 705.939 654.188C706.004 654.074 706.039 653.945 706.039 653.814C706.039 653.682 706.004 653.553 705.939 653.439C705.873 653.326 705.779 653.231 705.665 653.165L676.836 636.521C676.722 636.455 676.593 636.42 676.461 636.42C676.33 636.42 676.201 636.455 676.087 636.521C675.973 636.586 675.879 636.681 675.813 636.795C675.747 636.909 675.713 637.038 675.713 637.169V670.458C675.713 670.59 675.747 670.719 675.813 670.832C675.879 670.946 675.973 671.041 676.087 671.107C676.201 671.172 676.33 671.207 676.461 671.207C676.593 671.207 676.722 671.172 676.836 671.106L705.665 654.462C705.779 654.396 705.873 654.302 705.939 654.188C706.004 654.074 706.039 653.945 706.039 653.814C706.039 653.682 706.004 653.553 705.939 653.439C705.873 653.325 705.779 653.231 705.665 653.165V653.165Z" fill="white"/>
</g>
<defs>
<linearGradient id="paint0_linear" x1="0" y1="0" x2="0" y2="905" gradientUnits="userSpaceOnUse">
<stop stop-color="#9BD3CB"/>
<stop offset="1" stop-color="#9BD3CB"/>
</linearGradient>
<clipPath id="clip0">
<rect width="1008.92" height="607.45" fill="white" transform="translate(93 149)"/>
</clipPath>
</defs>
</svg>
